<svg width="80" height="80" viewBox="0 0 80 80" fill="none" xmlns="http://www.w3.org/2000/svg">
<g clip-path="url(#clip0_2296_94)">
<path d="M40.238 73.9999C35.6098 74.0297 31.0665 73.1372 26.8463 71.3649C18.3208 67.7864 11.5845 60.8462 8.26102 52.2187C6.63752 48.0027 5.88102 43.5019 6.01702 38.9757C6.19977 32.8259 8.03577 26.8547 11.3593 21.6782C13.9603 17.6279 17.3773 14.1769 21.3978 11.5419C26.8675 7.95069 33.2468 6.03819 39.796 5.99994C45.372 5.97019 50.8588 7.29194 55.7888 9.88444C61.879 13.0889 66.86 18.0572 70.0773 24.1389C72.6783 29.0562 74.0128 34.5302 74 40.0977C73.9533 58.7212 58.887 73.8767 40.238 73.9999ZM54.0718 54.7729C58.1518 50.8842 60.4468 45.4952 60.4 39.8469C60.3108 28.6609 51.2498 19.6382 40.0468 19.5999C34.441 19.5787 29.103 21.8737 25.244 25.9112C21.589 29.7319 19.5575 34.8362 19.5958 40.1402C19.634 45.2784 21.5933 50.2212 25.1208 53.9654L26.0388 54.8834C33.897 62.2912 46.2433 62.2402 54.0675 54.7772L54.0718 54.7729Z" fill="#0D3760"/>
<path d="M54.0719 54.773C46.2434 62.236 33.9014 62.287 26.0431 54.8792L25.1251 53.9612C21.5976 50.2212 19.6341 45.2785 19.6001 40.136C19.5619 34.832 21.5976 29.732 25.2484 25.907C29.1074 21.8695 34.4454 19.5787 40.0511 19.5957C51.2499 19.634 60.3151 28.6567 60.4044 39.8427C60.4511 45.491 58.1519 50.88 54.0761 54.7687L54.0719 54.773Z" fill="#D3D1C3"/>
<path d="M41.5259 31.8868C41.0414 31.279 40.5314 30.6798 40.0044 30.0933C39.4774 30.6755 38.9674 31.2663 38.4829 31.8655C38.8017 36.3663 39.0694 40.867 39.2904 45.3678C39.5539 45.338 40.5272 45.3295 40.7227 45.3508C40.9394 40.8628 41.2114 36.3748 41.5259 31.8868Z" fill="#D02030"/>
<path d="M44.7386 36.6765C44.3858 36.2345 44.0161 35.7967 43.6378 35.3675C43.1831 35.7117 42.7411 36.0645 42.3076 36.4257C42.2566 39.4305 42.1673 42.431 42.0483 45.4315C42.3118 45.4315 43.0811 45.5037 43.2723 45.5377C43.7271 42.5797 44.2158 39.626 44.7343 36.6765H44.7386Z" fill="#D02030"/>
<path d="M56.9659 35.5078C56.7364 34.7555 56.4814 34.0075 56.2052 33.2595C55.4869 33.5953 54.7857 33.948 54.1057 34.3178C52.7117 38.606 51.2667 42.8773 49.7749 47.1358C50.0342 47.208 50.9564 47.5778 51.1349 47.6713C53.0347 43.5955 54.9769 39.541 56.9702 35.512L56.9659 35.5078Z" fill="#D02030"/>
<path d="M51.6407 38.2617C51.3729 37.7602 51.0924 37.2587 50.7992 36.7615C50.2807 37.0122 49.7749 37.2715 49.2819 37.5435C48.6572 40.4802 47.9984 43.4127 47.3057 46.3325C47.5649 46.3877 48.3129 46.6045 48.4999 46.6767C49.5157 43.859 50.5612 41.054 51.6407 38.2617Z" fill="#D02030"/>
<path d="M47.5991 39.4262C47.3313 39.0607 47.0551 38.7037 46.7661 38.3467C46.3666 38.5677 45.9756 38.793 45.5931 39.0225C45.3508 41.275 45.0873 43.5275 44.7983 45.7715C45.0618 45.8055 45.6186 45.9117 45.8098 45.9585C46.3836 43.774 46.9786 41.5937 47.6033 39.422L47.5991 39.4262Z" fill="#D02030"/>
<path d="M25.9157 34.339C25.2314 33.9608 24.5259 33.5995 23.8077 33.2595C23.5272 33.999 23.2722 34.7428 23.0342 35.4865C25.0317 39.5325 26.9824 43.5955 28.8864 47.684C29.1244 47.5523 30.0424 47.174 30.2337 47.1188C28.7462 42.8773 27.3097 38.6145 25.9157 34.339Z" fill="#D02030"/>
<path d="M30.7305 37.5605C30.2333 37.2842 29.7275 37.0207 29.209 36.7657C28.9115 37.2587 28.631 37.7517 28.3633 38.249C29.447 41.0497 30.4968 43.8675 31.5125 46.6895C31.7633 46.5917 32.507 46.3665 32.6983 46.324C32.0098 43.4085 31.351 40.4887 30.7305 37.5605Z" fill="#D02030"/>
<path d="M37.7009 36.4385C37.2716 36.073 36.8254 35.716 36.3706 35.3632C35.9881 35.7882 35.6226 36.2175 35.2656 36.6552C35.7884 39.6132 36.2771 42.5755 36.7319 45.5462C36.9911 45.4995 37.7561 45.423 37.9559 45.4187C37.8369 42.4267 37.7519 39.4347 37.7009 36.4385Z" fill="#D02030"/>
<path d="M34.4198 39.0352C34.0373 38.7972 33.642 38.5677 33.2425 38.3467C32.9535 38.6995 32.6773 39.0565 32.4053 39.4177C33.03 41.598 33.6293 43.7825 34.203 45.9712C34.458 45.9032 35.0148 45.7927 35.2103 45.7672C34.9213 43.5275 34.6578 41.2835 34.4198 39.0395V39.0352Z" fill="#D02030"/>
<path d="M50.9394 48.177L50.2552 49.6305C43.7102 47.072 36.4129 47.1698 29.9232 49.911L29.2432 48.4575C36.1664 45.5123 43.9652 45.4188 50.9437 48.177H50.9394Z" fill="#D02030"/>
</g>
<defs>
<clipPath id="clip0_2296_94">
<rect width="68" height="68" fill="white" transform="translate(6 6)"/>
</clipPath>
</defs>
</svg>
