<svg id="Layer_1" data-name="Layer 1" xmlns="http://www.w3.org/2000/svg" xmlns:xlink="http://www.w3.org/1999/xlink" viewBox="0 0 820 820"><defs><clipPath id="clip-path"><rect x="-102" y="-102" width="1024" height="1024" style="fill:none"/></clipPath></defs><title>new</title><g style="clip-path:url(#clip-path)"><g style="clip-path:url(#clip-path)"><path d="M3.69,410c0,224.36,182,406.29,406.35,406.29S816.31,634.38,816.31,410,634.35,3.69,410,3.69,3.69,185.66,3.69,410" style="fill:#394875"/><path d="M163.7,410C163.7,546.11,274,656.34,410,656.34S656.39,546.11,656.39,410,546,163.71,410,163.71,163.7,274,163.7,410" style="fill:#c1bea7"/><path d="M330,410a80,80,0,1,0,80-80,80,80,0,0,0-80,80" style="fill:#ce202b"/></g></g></svg>