<?xml version="1.0" encoding="UTF-8"?>
<svg id="Layer_1" data-name="Layer 1" xmlns="http://www.w3.org/2000/svg" viewBox="0 0 500 500">
  <defs>
    <style>
      .cls-1 {
        fill: #005d96;
        stroke: #005d96;
        stroke-miterlimit: 10;
      }

      .cls-2 {
        fill-rule: evenodd;
      }

      .cls-2, .cls-3, .cls-4, .cls-5, .cls-6 {
        stroke-width: 0px;
      }

      .cls-2, .cls-6 {
        fill: #ffc72c;
      }

      .cls-3 {
        fill: #282825;
      }

      .cls-4 {
        fill: #dddac3;
      }

      .cls-5 {
        fill: #cd202f;
      }
    </style>
  </defs>
  <rect class="cls-4" x="4.73" y="4.73" width="490.54" height="490.54"/>
  <polygon class="cls-1" points="495.27 178.44 321.56 178.44 321.56 4.73 178.44 4.73 178.44 178.44 4.73 178.44 4.73 321.56 178.44 321.56 178.44 495.27 321.56 495.27 321.56 321.56 495.27 321.56 495.27 178.44"/>
  <g>
    <rect class="cls-5" x="178.44" y="178.44" width="143.12" height="143.12"/>
    <path class="cls-6" d="m319.93,180.07v139.87h-139.87v-139.87h139.87m1.63-1.63h-143.12v143.12h143.12v-143.12h0Z"/>
  </g>
  <g>
    <path id="path67" class="cls-2" d="m275.72,290.51l.2-1.27c-.73,0-1.3-.08-1.72-1.68l-1.51,3.56c1.32.29,2.22-.04,3.02-.61Z"/>
    <path id="path69" class="cls-2" d="m222.77,212.77c.69,2.12,2.02,2.65,3.3,2.79v2.81s-4.25.33-4.25.33c-1.27.27-1.64-.93-2.31-4.8,0,0,3.24-1.09,3.25-1.13h0Z"/>
    <path id="path71" class="cls-2" d="m221.1,219.63c.5,3.71,2.13,4.05,3.22,4.31l-.04.49-1.17.23.08,1.51,8.37-1.82-2.05-3.82c.77-2.61.85-5.03-1.1-8.25l-4.62-.45c1.15,3.26,2.48,2.58,3.56,2.77l-.34,4.58-5.91.45Z"/>
    <path id="path73" class="cls-2" d="m229.58,228.03l-.64-2.24-4.09.6-.08,2.54c2.28.42,3.65-.15,4.81-.91Z"/>
    <polygon id="polygon75" class="cls-2" points="231.48 226.63 230.87 225.34 229.7 225.72 230.11 227.61 231.48 226.63"/>
    <polygon id="polygon77" class="cls-2" points="244.92 210.2 232.73 211.98 232.78 214.1 243.56 212.62 244.92 210.2"/>
    <polygon id="polygon79" class="cls-2" points="233.56 216.79 232.92 215.16 243.07 213.68 241.86 215.61 233.56 216.79"/>
    <path id="path81" class="cls-2" d="m230.23,220.42l2.81,2.77,1.97-3.67c-1.82-.72-4.28-5.87-2.16-10.03l-3.04-2.58-1.52,3.55c3.24,2.51,3.11,8.72,1.94,9.97h0Z"/>
    <path id="path83" class="cls-2" d="m238.9,287.93c9.15,2.92,14.9,2.49,21.56,2.49l-.17,2.83c-8.89-.08-16.45.18-26.71-4.81,2.28-2.31,3.74-.94,5.32-.52h0Z"/>
    <path id="path85" class="cls-2" d="m235.8,284.23l-.09,1.29c9.83,4.73,17.91,4.12,25,4.21l.26-2.4c-8.72.61-15.51.69-25.17-3.09h0Z"/>
    <path id="path87" class="cls-2" d="m261,210.14c1.66-.29,2.49.16,3.2.83,2.37-.42,2.55.82,2.68,1.31l2.76-.35,3.9-2.92-4.22-1.69-9.22,1.41c.35.6.55.81.9,1.41h0Z"/>
    <path id="path89" class="cls-2" d="m266.2,289.65c-.77,1.27-1.88,1.55-.7,2.86-1.38.69-2.41.82-3.97.49,1.19-1.06,1.72-1.88,2.29-3.39.69,2,1.73.45,2.38.04h0Z"/>
    <path id="path91" class="cls-2" d="m236.63,235.44c-2.06-.11-.38-2.28.48-2.51l-3.06-2.6c-1.69.12-4.76.69-5.14,4.7l4.95,4.01c1.34.35,1.94-.18,2.08-.68l.68-2.92Z"/>
    <path id="path93" class="cls-2" d="m234.83,230.38c-.19-.83.38-1.4.86-1.48l4.06,2.17c-.82.26-2.19,1.37-2.19,1.37l-2.73-2.06Z"/>
    <path id="path95" class="cls-2" d="m242.84,223.71l.6,1.93c-.93-.15-8.91,1.07-6.46-5.94,1.21,4.24,3.9,3.86,5.86,4.01h0Z"/>
    <polygon id="polygon97" class="cls-2" points="219.56 218.53 218.64 219.55 215.28 217.32 217.25 213.72 218.64 214.21 219.56 218.53"/>
    <path id="path99" class="cls-2" d="m224.59,229.61c2.96,1.29,7.78-1.13,8.33-3.14l2.19.46-.74,2.31c-1.77.35-5.56.72-6.68,6.2,0,0-4.63-1.31-4.68-1.32-.05,0,1.58-4.51,1.58-4.51h0Z"/>
    <path id="path101" class="cls-2" d="m253.63,227.04c-1.42-1.92-2.98-3.89-7.14-4.01,0,0,.16,1.58.21,1.58,3,.04,4.56.88,5.9,2.54l1.02-.11Z"/>
    <path id="path103" class="cls-2" d="m263.01,279.56c2.74.17,4.3,1.19,5.92,2.58-.52.9-2.61,2.16-4.99,1.35l1.02-1.96-.65-.16-1.92,2.62-.94.53-1.06.16,2.62-5.11Z"/>
    <polygon id="polygon105" class="cls-2" points="260.15 258.81 257.17 254.08 260.72 256.2 260.15 258.81"/>
    <path id="path107" class="cls-6" d="m249.93,201.27c1.4,1.25,1.14,2.63.52,3.24.23-.14.49-.21.76-.21.85,0,1.55.72,1.55,1.61s-.69,1.61-1.55,1.61c-.67,0-1.35-.33-1.54-.95l-.15.57,4.61,3.21.09.05.49-.73c-.09.03-.17.06-.26.08-.89.17-1.76-.41-1.93-1.3-.18-.89.41-1.76,1.3-1.93.87-.17,1.79.75,1.99,1.61-.01-.09.07-.73.07-.82,0-.91.74-1.65,1.65-1.65s1.65.74,1.65,1.65-.58,1.58-1.47,1.61c.06-.07-.11.49-.04.45.79-.45,1.74-.49,2.32.2.58.7.71,1.89,0,2.46-1.54,1.22-2.69.26-2.69-.9,0,.1-.51.83-.51.83l4.29,2.72.84-.39c-.09,0-.18,0-.28-.02-.9-.13-1.53-.96-1.4-1.86.13-.9.96-1.52,1.86-1.4.88.13,1.5.93,1.4,1.81.19-.8.7-1.75,2.11-.82l-4.49,4.25-13.32-8.96c.06-.03,2.06-5.89,2.1-5.87.01.01-.01-.16.02-.15h0Z"/>
    <polygon id="polygon109" class="cls-2" points="213.85 242.31 212.18 242.31 217.37 238.31 223.74 244.07 220.39 244.23 216.59 242.89 217.94 241.54 217.04 241.13 213.85 242.31"/>
    <path id="path111" class="cls-2" d="m241.25,218.53l.45,1.02,1.25-.98-.53,2.12.91,1.4,1.51-.91-1.17,1.63c.54,1.03.69,1.45,1.61,2.09.42-6.29,6.27-5.05,8.07-2.93,2.01,2.69,2.44,7.99-4.86,5.54l-1.29-.53-1.06-.83s-.58-.56-.63-.57l-.05.9-.83,2.05c2.48,1.14,4.1,1.48,6.18,1.48v1.32c-3.56-.68-9.31-2.15-13.12,2.07l-1.07,1.19,1.45.23s-.82,2.96-.83,2.99l6.04-2.83h.78l.04.65-19.74,9.6-2.82.29-6.37-1.11-2.9,4.98,2.9-.61.45-2.65,1.27.29-.9,2.57,3.19-.24,2.86-1.31,1.06.53-6.95,3.35,3.97,5.59-.16-5.8.78,2.53,3.92-3.39,1.02-.12s-.85,2.41-.86,2.49c-.01.08,2.37.85,2.37.85l-.16.62-2.33-.04-1.67,1.76c2.38.16,3.49-.28,5.23-1.22l-.29-2.78,4.17-2.16.78.65-2.04,1.88c5.12,1.51,6.42-2.98,7.07-4.66l1.27-.36c-.23,2.05-.73,3.63-1.96,4.74,6.22-.61,4.99-4.86,5.07-6.66l1.02-.69c.58,2.33.66,3.72-.69,6.17,1.03.13,2.09-.08,3.64-1.06,2.46-2.33,2.09-4.16,2.49-7.11,2.01,3.27.78,4.5-.11,7.07l11.31,4.82c.13-1.47-.64-2.9-2.33-3.84,0-.04.37-.49.37-.49,4.22,1.47,3.9,5.48,2.71,8.83-4.26,10.05,3.82,14.54-.43,18.18,7.32-.33,5.69-4.74,5.8-6.86-.05,0,6.09,2.94,6.09,2.94,1.36,2.54.82,5.15-1.55,9.81-2.49,1.35-4.66,2.33-8.38,2.69l-.82,5.56,2.17-4.65.41-.04.82,2.41,2.29-.41,2.45-3.14.61.25-1.64,2.62-2.53,3.43,4.66,3.63-.98-3.23-1.39-1.43.45-.53,2.37,1.59,3.06-7.15,1.35,3.6,1.76.12.2-.41h.53l-.16,1.18h-1.06s-.04,3.43-.04,3.43l2.03-2.94,1.11-2.98-2.21-2.16.57-1.06c1.81,1.11,2.91,1.88,3.35,3.64,1.8-1.51,2.54-4.74-1.55-9.31,2.74.33,3.28,2.29,4.05,3.84,1.06-2.41,1.64-7.15-4.75-9.81l.04-3.88-4.54-1.39-.08-.61-1.58-.73c0-1.71,2.57-5.39-2.09-9.19,5.4,1.59,7.77-1.67,9.32-3.19,5.77,1.43,7.24-2.53,7.39-4.58-1.46.98-5.42,2.37-6.33.33,4.17-.12,5.48-.78,5.47-4.9-1.71.9-3.91,1.35-5.55.82-.48-2.85-1.85-5.55-4.8-8,0,0-1.81,2.37-1.8,2.41,5.14,3.06,4.44,17.07-4.22,12.33l-4.25-3.76-6.9-7.13c-1.01.46-3.89,1.52-6.62-.38,5.31.99,8.8-1.09,8.71-3.52-2.68,1.44-4,.95-6.44.64l.23-.72c8.61.27,7.85-2.95,8.07-5.49-1.05,1.25-2.83,2.24-5.72,1.63l.11-1.02c2.59.04,7.02-1.28,5.62-6.09-.67,1.6-1.74,2.35-4.88,2.65l-.11-.79c.68-.38,5.51-.73,4.49-6.14-1.39,1.56-2.41,2.31-4.81,2.73l-.15-1.06c2.4-.64,3.44-1.43,4.48-2.87-.05,0,.08-3.26.08-3.26-1.27,1.48-2.8,3.37-6.18,3.25l-.08-.72c8.69-.87,1.77-9.08-2.23-2.16l-.64.08-.49-.49.27-.49-.15-1.17-6.74-4.51-1.86,3.22,3.07.3.08,1.7s-2.91,1.67-2.99,1.67c-.09,0,.96-2.27.96-2.27l-1.45-1.18-2.77,4.77Z"/>
    <path id="path113" class="cls-2" d="m255.05,254.01l4.12,5.67-.94,4.29c-.99-.08-6.91-.25-6.61,4.73,5.37,2.32,2.79,4.98.34,6.01.64-.94.9-3.09-1.37-3.26.64,2.66,1.42,5.33-4.38,6.87,3.05-2.57,1.25-4.03.86-5.32-.73,2.84-.47,5.07-5.07,6.01l.17-3.26-.77-.6-.69,1.8-2.15,1.37,1.98,2.83-4.72,2.66,2.06-3.26-.94-.34-.94.86.17-1.63-.86-2.4-2.32.08-2.06,3.86-1.29-.26-.26-.69-1.46-.77-.26.77,1.55,1.21-.6,3.52-2.58-5.84,6.18-3-.17-.69-5.93,2.49-2.4-2.06-.26,1.72-2.66,3.18.6-5.32,18.21-5.84,1.12-.52c2.19-.68-.64-5.75,1.55-7.3-2.62.09-7.43.44-4.29-6.7,4.34,4.56,12.07,1.12,17.1-.86h0Z"/>
    <polygon id="polygon115" class="cls-2" points="224.38 268.34 219.22 273.67 220.68 273.76 224.03 272.21 224.55 270.75 225.58 271.35 225.41 272.3 224.46 272.47 226.36 272.9 228.67 272.04 224.38 268.34"/>
    <path id="path117" class="cls-2" d="m220.51,282.34l1.29-1.03,2.15-3.01,1.12.69,3.61,7.56,1.8-4.64,1.55.6-2.75,4.55-1.55-.17-1.89-3.43-.86,1.8-2.32-1.89-.34-1.63-.69,1.37.43.86c-1.76-.6-2.71.26-2.06,4.38-1.16-1.37-4.77-2.83-1.89-6.1l.43.26.26-1.29c-2.19-3.26.04-3.86,1.2-3.61v4.72h.52,0Z"/>
    <path id="path119" class="cls-2" d="m234.69,277.79c2.19,2.41-.9,7.3.6,8.76-1.76,1.38-6.06,2.24-4.3,6.61.4-.87-.04-1.71.94-2.32,6.74,3.44-3.65,8.85-4.12.6.04-1.97,3.57-4.2,3.69-6.44,2.37-2.14,2.02-4.55,1.38-5.84l1.8-1.37Z"/>
    <path id="path121" class="cls-2" d="m282.51,217.38c-1.67-.23-1.16,1.63-1.16,2.69-1.09-.87-2.11-2.21-1.6-4.99l-.71.73-.7-.09c-.39,1.05-.9,2.23,0,4-1.47-.29-4.17-1.76-3.45-5.18l-1.6.51c-1.28,2.97,1.02,3.59,2.38,4.84-2.12.35-4.23.86-6.15-2.56-4.1,6.3,1.08,12.31,3.59,15.17l-2.89.67c-1.85-2.3-3.14-3.81-4.29-7.35-2.56-10.05,5.11-13.13,8.7-13.8,5.64-.35,7.56,1.64,10.12,4.13,3.46,4.16,3.78,12.6-5.31,17.6-1.67,1.63-7.82,1.37-7.68,14.34-1.16-1.44-4.81-3.04-2.95-8.32-.39.41-2.95.45-1.85,6.5-5-4.2-.77-7.27-.45-8.06-1.35.28-2.44.41-3.46,3.14-1.09-8.93,8.12-5.78,13.32-9.47,10.81-5.86,8.64-11.62,6.15-14.46h0Z"/>
    <polygon id="polygon123" class="cls-2" points="247.48 207.87 246.73 209.38 253.57 214.37 255.82 213.73 247.48 207.87"/>
  </g>
  <path class="cls-3" d="m497.62,497.63H2.37V2.37h495.25v495.25Zm-490.54-4.71h485.82V7.09H7.09v485.83Z"/>
  <path class="cls-3" d="m495.27,4.73v490.54H4.73V4.73h490.54m4.73-4.73H0v500h500V0h0Z"/>
  <path class="cls-6" d="m316.86,183.14v133.72h-133.72v-133.72h133.72m4-4h-141.72v141.72h141.72v-141.72h0Z"/>
</svg>