<svg id="Layer_1" data-name="Layer 1" xmlns="http://www.w3.org/2000/svg" xmlns:xlink="http://www.w3.org/1999/xlink" viewBox="0 0 800 800"><defs><clipPath id="clip-path"><rect x="-112" y="-112" width="1024" height="1024" style="fill:none"/></clipPath></defs><title>new</title><g style="clip-path:url(#clip-path)"><polygon points="803.78 285.89 514.11 285.89 514.11 -3.78 285.89 -3.78 285.89 285.89 -3.78 285.89 -3.78 514.11 285.89 514.11 285.89 803.78 514.11 803.78 514.11 514.11 803.78 514.11 803.78 285.89" style="fill:#313130"/><polygon points="225.54 -3.78 225.54 225.54 -3.78 225.54 -3.78 285.89 225.54 285.89 285.89 285.89 285.89 225.54 285.89 -3.78 225.54 -3.78" style="fill:#c1bea7"/><polygon points="803.78 225.54 574.46 225.54 574.46 -3.78 514.11 -3.78 514.11 225.54 514.11 285.89 574.46 285.89 803.78 285.89 803.78 225.54" style="fill:#c1bea7"/><polygon points="574.46 803.78 574.46 574.46 803.78 574.46 803.78 514.11 574.46 514.11 514.11 514.11 514.11 574.46 514.11 803.78 574.46 803.78" style="fill:#c1bea7"/><polygon points="-3.78 574.46 225.54 574.46 225.54 803.78 285.89 803.78 285.89 574.46 285.89 514.11 225.54 514.11 -3.78 514.11 -3.78 574.46" style="fill:#c1bea7"/><polygon points="212.38 -3.78 212.38 212.38 -3.78 212.38 -3.78 225.54 212.38 225.54 225.54 225.54 225.54 212.38 225.54 -3.78 212.38 -3.78" style="fill:#313130"/><polygon points="803.78 212.38 587.63 212.38 587.63 -3.78 574.46 -3.78 574.46 212.38 574.46 225.54 587.63 225.54 803.78 225.54 803.78 212.38" style="fill:#313130"/><polygon points="587.63 803.78 587.63 587.63 803.78 587.63 803.78 574.46 587.63 574.46 574.46 574.46 574.46 587.63 574.46 803.78 587.63 803.78" style="fill:#313130"/><polygon points="-3.78 587.63 212.38 587.63 212.38 803.78 225.54 803.78 225.54 587.63 225.54 574.46 212.38 574.46 -3.78 574.46 -3.78 587.63" style="fill:#313130"/></g></svg>