<svg id="Layer_1" data-name="Layer 1" xmlns="http://www.w3.org/2000/svg" xmlns:xlink="http://www.w3.org/1999/xlink" viewBox="0 0 740 740"><defs><clipPath id="clip-path"><rect x="-142" y="-142" width="1024" height="1024" style="fill:none"/></clipPath></defs><title>new</title><g style="clip-path:url(#clip-path)"><rect x="1.62" y="1.62" width="736.75" height="736.75" style="fill:#c1bea7"/><rect x="1.62" y="1.62" width="190.45" height="736.75" style="fill:#00662d"/><rect x="547.93" y="1.62" width="190.45" height="736.75" style="fill:#ce202b"/><g style="clip-path:url(#clip-path)"><path d="M350.1,262c0,25.53-.05,51.07.07,76.6,0,2.53-.76,2.93-3.12,2.92-21.77-.09-43.54-.05-65.31-.05,0-5.5-.09-11-.09-16.5,0-20.1,0-40.2,0-60.29,0-2.05.35-2.83,2.74-2.82,21.18.11,42.37.06,63.55.06.74,0,1.47.05,2.21.08" style="fill:#ce202b"/><path d="M457.78,341.2c-21.15,0-42.3,0-63.45.05-2.29,0-3-.39-3-2.91.12-25.47.07-50.95.07-76.42l48.14-.08c5.49,0,11,0,16.45,0,1.39,0,1.94.28,1.93,1.82q-.07,38.55,0,77.1a3.81,3.81,0,0,1-.07.47" style="fill:#ce202b"/><path d="M281.64,385.92c21.95,0,43.9,0,65.85-.05,2.19,0,2.68.55,2.68,2.66-.09,25.94-.06,51.89-.06,77.83-17,0-33.91.11-50.87,0-5.12-.05-10.12-1-13.66-5.37a16.66,16.66,0,0,1-3.89-10.49c-.15-21.51-.06-43-.05-64.54" style="fill:#ce202b"/><path d="M391.57,466.37q0-39-.05-78.09c0-1.88.45-2.41,2.34-2.41,21.32.07,42.64,0,63.95,0,0,10.39.08,20.79.09,31.19,0,10.71,0,21.43,0,32.15a19.65,19.65,0,0,1-.86,5.46c-2.33,7.94-7.27,11.6-16.23,11.65-16.4.09-32.81,0-49.21,0" style="fill:#ce202b"/><path d="M245.1,236.49H494.9c-1.33,1.71-2.55,3.14-3.62,4.69-4.75,6.83-6.83,14.52-7.28,22.73-.08,1.58-.06,3.16-.06,4.74q0,90,0,180.06c0,9.22-1.49,18-6.76,25.79-7.67,11.33-18.6,17.47-32.06,17.87-18.93.57-37.9.21-56.86.23-5.41,0-10.48.86-14.37,5.17a24.19,24.19,0,0,0-3.55,5.74c-.27-.09-.52-.11-.56-.2-3.36-7.91-9.61-10.8-17.87-10.74-17.63.12-35.27-.05-52.91.07a43.63,43.63,0,0,1-25.15-7.22c-9.63-6.44-15.13-15.6-17-27a66.78,66.78,0,0,1-.62-10.76q0-89.5,0-179c0-11.88-2.51-22.77-11.2-32.15M356,262.36c-.79,0-1.57-.09-2.36-.09-22.71,0-45.43.05-68.14-.07-2.56,0-2.94.85-2.93,3.1.07,22.1,0,44.2.05,66.29,0,6.05.06,12.1.1,18.15v28.2c0,23.4-.11,46.8.05,70.2a18.26,18.26,0,0,0,4.17,11.41c3.79,4.72,9.14,5.8,14.62,5.85,18.14.16,36.29.05,54.43,0a18.86,18.86,0,0,1,12.92,6.23c1,1.07,1.46,1.06,2.41,0a18.86,18.86,0,0,1,12.92-6.23c18.14,0,36.28.09,54.43,0,9.91-.05,15.38-4,17.94-12.66a20.56,20.56,0,0,0,1-5.94c0-11.66,0-23.32,0-35,0-11.31-.07-22.62-.1-33.92v-28.2a5.06,5.06,0,0,0,.08-.52q0-42.48.06-85c0-1.7-.6-2-2.14-2-6.05.07-12.1,0-18.15,0l-53.13.09H356" style="fill:#394875"/></g></g></svg>