<svg id="Layer_1" data-name="Layer 1" xmlns="http://www.w3.org/2000/svg" xmlns:xlink="http://www.w3.org/1999/xlink" viewBox="0 0 810 810"><defs><clipPath id="clip-path"><rect x="-107" y="-107" width="1024" height="1024" style="fill:none"/></clipPath></defs><title>new</title><g style="clip-path:url(#clip-path)"><g style="clip-path:url(#clip-path)"><path d="M720,381.05q0-13.23-.37-26.24V43.62L405,43.7,90.31,43.62V354.4c-.23,9.07-.36,17.83-.36,26.65s.13,17.57.36,26.23L89.2,632.56c.21,1.41.51,3.26,1,5.39,8.08,36.87,41.6,65.68,71.24,77.88,15.76,6.47,50.65,6.36,113.8,6.36l10.65-.05,9.73,0c23.54,0,43.52,1,67.25,10.06A164,164,0,0,1,405,756a162.87,162.87,0,0,1,42.14-23.84c26.93-10.3,49.16-10.14,77-10l10.42.05c63.34,0,98.29.11,114-6.36,29.66-12.2,63.19-41,71.26-77.87.48-2.14.8-4,1-5.45l-1.13-224.82c.24-9.07.37-17.82.37-26.64" style="fill:#ce202b"/><path d="M719.67,43.62V354.81c.24,8.66.37,17.42.37,26.23s-.13,17.58-.37,26.65l1.13,224.82c-.21,1.43-.53,3.31-1,5.45-8.07,36.86-41.6,65.67-71.26,77.86-15.72,6.48-50.66,6.35-114,6.37l-10.42-.05-8.84,0c-23.83,0-44.11.87-68.13,10.06A162.87,162.87,0,0,0,405,756a164,164,0,0,0-42.14-23.84c-23.73-9.07-43.71-10.06-67.25-10.06l-9.73,0-10.65.05H269c-59.21,0-92.33-.11-107.56-6.37-29.64-12.19-63.16-41-71.24-77.87-.48-2.13-.78-4-1-5.39l1.11-225.28Q90,394.29,90,381c0-8.81.13-17.57.36-26.64V43.62L405,43.7ZM758.52,4.77H719.66L405,4.86,90.32,4.78H51.47V353.91c-.25,9.73-.37,18.61-.37,27.13s.12,17.5.36,26.66l-1.1,224.67,0,3,.46,3c.31,2,.75,4.72,1.47,7.92,11.88,54,58.26,90.54,94.39,105.4C169.24,761,202.58,761,269,761h6.42l10.64,0,9.56,0c22.87,0,36.69,1.12,53.38,7.5a125.47,125.47,0,0,1,32.17,18.23L405,805.23l23.84-18.57A124.26,124.26,0,0,1,461,768.47H461c18.17-7,33.94-7.49,54.24-7.49l8.11,0H524l10.4,0h4c70.33,0,102.43,0,124.93-9.29,36.11-14.85,82.51-51.35,94.38-105.37.59-2.63,1.08-5.27,1.5-8.08l.45-3,0-3-1.12-224.23c.24-9.69.36-18.54.36-27s-.12-17.56-.36-26.74V4.77Z" style="fill:#b7b49a"/><path d="M240.66,191.18l-2.72-5.32c-.59-1.16-6.51-9.43-7.09-10.6-1.11-2.22-2.27-4.42-3.27-6.7a18.21,18.21,0,0,1-1.17-4c-.32-1.74-.39-3.52-.65-5.27-.38-2.49.48-3.62,3-3.76a6.32,6.32,0,0,1,1.74,0c11.5,2.51,23.16,4.45,34.07,9.22,4.2,1.83,8.55,3.36,12.62,5.44,4.39,2.24,8.59,4.87,12.78,7.51a108.71,108.71,0,0,1,11.56,7.85,145.27,145.27,0,0,1,14.64,13.52c4.49,4.89,8.32,10.41,12.28,15.77a25.68,25.68,0,0,1,2.63,5.3c1.77,4.18,4,8.09,5.36,12.54a93.44,93.44,0,0,1,3.26,14.15c.72,5,7.27,20.33,7.38,25.43.07,3.38-1.16,6.54-2.77,9.65-2.31,4.45-6,6.73-10.28,8.42-2.3.89-4.52,1.95-6.77,2.95a3.41,3.41,0,0,0-2.12,4.67c2.27,6.92,7.19,10.95,14,12.59,3.2.77,6.56.87,9.84,1.33,1.83.25,3-.39,3.25-2.33.57-3.88,11.91,5.6,13.6,1.91.65-1.42-.33-3.72-.87-5.53-.6-2.08-1.76-4-2.26-6.1s.9-3.08,3-2.68c4.35.8,2.33-9,5.67-13.31s7.24-7.83,11-11.66c2.83-2.91,3-3.71.93-7.13-.94-1.58-.42-2.69,1.48-3.8,2.51-1.46,5.21-2.75,7.34-4.66,7.82-7,10.84-15.91,10.05-26.25a10.59,10.59,0,0,1-.1-1.12c.32-9.55-8.9-15.77-18-14.06a27.59,27.59,0,0,0-7.56,2.76,39.24,39.24,0,0,1-15,4.61C356.31,223,349.73,218,349,213a4.19,4.19,0,0,1,1.13-3.14c.47-.44,2.08-.2,2.83.29a5,5,0,0,0,4.7.69,4,4,0,0,1,2-.1,7.34,7.34,0,0,0,6-1.5,12.71,12.71,0,0,1,1.57-.89c3-1.62,6.15-3.06,9-4.93,1.06-.7,2.27-2.73,1.95-3.6a5.81,5.81,0,0,0-3.53-3c-5.05-1.39-10.19-2.06-15.4-.56a13.19,13.19,0,0,1-3.62.18c-3.14,0-4-.94-3.69-4.15.1-1.2-.15-2.43.06-3.6a50.72,50.72,0,0,1,1.41-5.06c.06-.21.33-.36.37-.56.89-4.16,4.23-4.4,7.52-4.73,1.88-.18,3.76-.39,5.65-.46a4.35,4.35,0,0,0,4.42-3.21,8.44,8.44,0,0,1,3.93-5c2-1.19,2.37-3.27,2.24-5.35a35.93,35.93,0,0,0-.89-7c-.42-1.61-1.17-3.51-2.41-4.44-2.56-1.93-2.7-4.28-2.42-7,.39-3.79-1.35-6.91-3.38-9.9-1.43-2.11-2.79-4.27-4.31-6.31-1.07-1.44-2.49-2.62-3.51-4.09a14.65,14.65,0,0,1-1.3-3.29c1-.34,2-1.07,3-1,4.11.53,8,1.26,11,4.88,2.76,3.36,3.32,3.17,7.4,1.48,1-.43,2.17-.7,3.16-1.22a12.07,12.07,0,0,0,3.53-2.24c2.53-2.78,4.8-5.79,7.25-8.65q3.24-3.78,6.65-7.4a2.75,2.75,0,0,1,4.27.45c1.35,1.69,2.89,3.24,4.29,4.89,1.26,1.48,2.43,3,3.67,4.53a17.51,17.51,0,0,0,1.67,1.78,25.64,25.64,0,0,0,3.75,3.19,92.32,92.32,0,0,0,9.65,5.18c.74.34,2.2-.6,3.17-1.19,3.07-1.86,6-4,9.14-5.69a8.53,8.53,0,0,1,4.41-.57c1.83.13,2.46,1.73,1.2,3.07-4.71,5-7.29,11.37-10.57,17.26-2.19,4-.95,9.53-5.76,12.29-.68,3.24-1.54,6.46-2,9.73-.33,2.52,1.16,3.76,3.75,3.52,1.73-.16,3.43-.61,5.16-.74,2.61-.2,3.61.85,3.41,3.49-.11,1.42-.33,2.85-.56,4.26-.56,3.44,1,5.32,4.45,5.45,3.92.14,4.76,1.57,3.17,5.23-.84,1.94-2,3.86-2.29,5.89-.36,2.62-.78,5.68.21,7.95,2.4,5.54,2.51,11,1.8,16.84-1.15,9.51-2.22,19-2.87,28.59-.23,3.37.9,6.82,1.4,10.24.3,2,.64,4,.83,6.05.18,1.86-.67,2.95-2.66,2.66-2.19-.33-3.22.75-3.19,2.75.09,5.87-.34,11.76,2,17.43,1.52,3.63,4.72,6.49,8.65,6.76,3.26.23,4.43,2.49,2.64,5.39a41,41,0,0,1-3.64,4.86c-1.72,2.05-1.83,3.78-.36,5.93,1.67,2.45,3,5,2.53,8.17-.27,1.81,1.08,3,3.19,2.83a32.88,32.88,0,0,0,4.66-.94c2.56-.59,14.64-8.95,17.14-9.76,5.24-1.68,9.42-4.83,11.57-10,1.43-3.43-.83-7-4.46-7.67a3.38,3.38,0,0,1-1.29-.36c-4.85-3.39-10.15-6.37-13.24-11.64-2.82-4.81-3.88-10.14-4-15.79-.35-11.92,2.52-23,7.55-33.69a88.52,88.52,0,0,1,7.21-12.4c3.14-4.57,7-8.34,10.52-12.53,1.6-1.94,3.79-3.38,5.71-5.07s3.46-3.32,5.36-4.75c4.31-3.25,8.69-6.39,13.1-9.49,2.86-2,5.82-3.9,8.74-5.85a7.2,7.2,0,0,1,1-.58c6.9-3,13.67-6.41,20.74-8.93,9.85-3.52,19.74-7.09,30.33-7.86,2.09-.15,4.13-.91,6.22-1.15,1.11-.13,2.69-.14,3.3.51s.43,2.25.14,3.3c-1,3.6-2,7.2-3.36,10.69-1,2.78-2.49,5.4-3.74,8.1-1,2.12-5.54,8.71-6.42,10.88a1.82,1.82,0,0,0,.27,1.61,1.76,1.76,0,0,0,1.61.22c1.56-.73,3.05-1.61,4.55-2.47,4.55-2.62,17.22-7.44,21.75-10.08.71-.42,2.15-1.08,2.88-1.42a9.26,9.26,0,0,1,3.31-1.11c1.66-.08,2.11,1.18,1.83,2.72a38,38,0,0,1-1.18,4.87,28.07,28.07,0,0,1-2.91,6.89c-2.52,4.08-2,3.17-7.15,12.24-1,1.75-3.69,5.52-4.34,7.43-.3.88-4,13.22-4.08,12.23.13,3.23,18.17.82,21,.86,5.06.06,10.13,0,15.19.06a26.7,26.7,0,0,1,4.73.36c2.87.56,4.62,2.13,3.16,4.71-1,1.71-1.65,3.09-3.3,6.25-.14.27-1.39,2.08-1.57,2.3-1.85,2.32-3.68,4.83-6.69,8-2.29,2.44-11.65,16-11.26,17.13.73,2,16,4.75,17.56,4.93,5.17.6,17.77,2.3,29.31,2.66,7.34.23,8.24.9,5,7.8-.1.2-9.66,6.29-11.84,7.62-2.49,1.52-17.36,11-16.7,10.52-6.79,5.34-20,13.16-20.8,13.61.52.75,15.37,5.14,16.2,5.33,6,1.37,9.59,3.56,12.89,4.47,4.49,1.24,7,2.2,14.2,4.47a72.06,72.06,0,0,1,10.52,4.47c5.26,2.9,7.74,4.35,9.2,6.32s-6.89,5.9-9.61,6.47c-5.24,1.11-17.16,5-22.47,5.63-7.27.89-9.76,2.3-25,6.09a22.92,22.92,0,0,0-2.73,1c.56.71,1,1.67,1.69,2.08,7.08,4,14.23,7.83,21.9,10.58,4.52,1.62,9,3.22,13.59,4.76,1.13.39,6.79,1,7.53,3.16.33,1-3.14,3.85-4.14,4.19a34.15,34.15,0,0,1-6.17,1.36c-5.45.74-10.9,1.79-16.37,1.91-5.92.12-12.06-2.38-17.86-4.23a81.13,81.13,0,0,0-8.8-1.95c-2.49-.5-3.33.32-2.66,2.76a18.19,18.19,0,0,0,1.74,3.65,111.46,111.46,0,0,1,8.23,19.47c1,3.15,2.18,6.23,3.07,9.4,1.16,4.13,2.55,8.27,3.06,12.5.79,6.65,1,13.38,1.3,20.08.09,2.07-1,2.85-3.14,2.35a69.67,69.67,0,0,1-14.54-4.7C599,440.67,594.27,437,589.1,434c-3-1.76-5.24-4.84-8-7.15-.63-.53-23.44-13.84-24.1-14.15-3.65-1.7-2.07,9.41-1.84,14.73.26,6.05.06,9.47.34,19.73.27,9.94-.08,13.15-2.17,22.87-1.09,5.06-2.2,10.18-5,14.65-1.49,2.34-2.61,2.58-4.85,1a20.6,20.6,0,0,1-4.12-3.84c-3.87-4.89-7.27-9.89-10.89-15.22-5.36-7.87-14.28-16.29-17.7-20.49-2.34-2.89-18.1-22.65-22.35-24.08-4.66-1.56-7-6.14-9-10.72-2.29-5.3-2.72-10.95-3.79-16.44s-1.08-11.08-1.31-16.64c-.16-3.74-1.13-4.83-4.83-4.23-1.78.29-3.51.94-5.3,1.19-2.51.36-14.53,8.28-17,8.65a17.84,17.84,0,0,0-3.44,1.21c.51,1,.77,2.32,1.58,2.91,3.55,2.64,5.76,6.18,7.9,10,4.25,7.54,7.34,15.65,11.64,23.14a51.54,51.54,0,0,0,4.66,6.38q4.58,5.73,9.33,11.32c1.34,1.56,2.18,3.06,1,5.07s-.29,3.16,1.32,4.72a13.88,13.88,0,0,1,4.09,6.76c.71,3.72,3.44,5,6,6.48,2.76,1.6,3.15,2.36,1.25,5-1.39,1.94-1.29,3.34.52,5,.78.69,1.92,1,2.61,1.75a60.51,60.51,0,0,1,5.59,6.7c.89,1.3,0,2.77-1.46,3.27a88,88,0,0,1-9.46,2.88c-1.46.33-3.22.34-3.44,1.91a5.77,5.77,0,0,0,1.35,3.79c2.29,3,4.83,5.79,7.22,8.7a2.55,2.55,0,0,1,.67,1.63c-.51,4.77,3,6.48,6.26,8.41,2.13,1.24,4.23,2.55,6.31,3.89a3.17,3.17,0,0,1,1.37,4.45,3.26,3.26,0,0,0,.18,2.87,82.43,82.43,0,0,0,7.95,8.54c4.75,4.24,9.65,8.35,14.77,12.14a9.8,9.8,0,0,0,8.38,2c6.54-1.41,13.32-1.63,19.92-2.77a10.86,10.86,0,0,0,5.75-3.26c3.89-4.33,12.44-5.7,17.71-1.06,2.42,2.13,5.06,4.11,7,6.61a24,24,0,0,1,3.35,7,2.23,2.23,0,0,1-3,2.77c-5.42-1.71-10.24.45-15.23,1.71a7.22,7.22,0,0,1-6.42-1.17c-4.85-3.53-12.75-2.59-17.08.43a6.92,6.92,0,0,0,6,1.73c2.37-.45,4.26.28,6.28,1.2,3.27,1.48,6.56,2.9,9.92,4.16a7.93,7.93,0,0,0,3.34.15c3.44-.26,6.41.8,8.25,3.69s2.21,6,.26,9a8.21,8.21,0,0,0-.9,7.41c1.33,3.58-.24,5.86-2.7,7.87a33.6,33.6,0,0,1-4.94,3.19c-1.73,1-3,.44-3.3-1.52a11.28,11.28,0,0,1,.25-4c.63-2.93-.28-4.76-3.16-5.43a8.63,8.63,0,0,1-5.93-5.14,12.54,12.54,0,0,0-9.77-7.38c-1.84-.3-3.56-1.25-5.38-1.63-2.57-.53-4,.7-3.33,3.22a9.34,9.34,0,0,0,3,4.81,22.39,22.39,0,0,0,6.85,3.44,14.16,14.16,0,0,1,6.68,4.82,4.86,4.86,0,0,1,1.11,2.19c1.14,7.19-.54,13.68-6.09,18.49-2.28,2-5.62,2.81-8.58,3.9-.8.3-2-.37-3-.59a14,14,0,0,1,.67-2.26c1.36-2.8.52-5.08-2.34-6.12a6,6,0,0,1-4-5.08,16.47,16.47,0,0,1-.16-5.19c.86-5.13-1.25-9.32-3.94-13.32-2.27-3.37-4.79-6.57-7.14-9.89a5.25,5.25,0,0,0-6.83-1.58c-1.75.85-3.63,1.42-5.4,2.24-1.28.6-2.47,1.39-3.7,2.08a12.24,12.24,0,0,1-2.56,1.33,3.17,3.17,0,0,0-2.68,2.94c-.17,1.78.15,3.32,2,4.09a5.88,5.88,0,0,1,1.39.77c1.43,1.12,1.3,3.29-.43,3.79a24.34,24.34,0,0,1-6.77,1c-6.44,0-9.63-4.63-12.72-9.37a22.94,22.94,0,0,1-3.36-8.06c-.79-3.81,2.31-9.24,6.86-9.52,2.46-.15,4.91-.46,7.36-.5,3.16-.05,4.15-1.5,2.68-4.29-2.14-4-4.19-8.17-6.56-12.09A84.48,84.48,0,0,0,493,528.19c-6-7-12.31-13.59-18.5-20.35-1.66-1.8-3.37-3.56-5-5.37-2.57-2.8-5.45-2.72-8.53-.47a53.12,53.12,0,0,1-9.35,5.3c-2.31,1.06-3.92-.29-4-2.87-.15-3.16-.29-6.32-.36-9.48-.07-3.42-.57-4.13-4-4.8-1.83-.36-2-1.83-2.39-3.2-.91-3.64-1.39-7.43-2.71-10.91-2.32-6.1-5.1-12-7.78-18a55.57,55.57,0,0,0-3.61-6.77c-.66-1-1.79-2.32-2.83-2.44-1.85-.21-2.19,1.79-2.28,3.1a142.43,142.43,0,0,0-.47,14.89,57.74,57.74,0,0,0,1.84,10.7,49.44,49.44,0,0,0,2.41,6.54c.39,1,.92,1.9,1.31,2.88,2.2,5.42,4.68,10.66,8.73,15,1.7,1.83.79,4.43-1.62,5.17-1.36.42-3.51.78-3.81,1.67-.59,1.8-.29,3.94-.13,5.92.38,4.72,3.12,8.58,4.87,12.79a3.74,3.74,0,0,0,2.31,2,75.14,75.14,0,0,0,7.51.94,3.56,3.56,0,0,0,.9-.13c5-.56,6.08.32,6.13,5.36a49.94,49.94,0,0,1-.4,8.12,4.25,4.25,0,0,1-2.29,2.92c-4.1,1.32-8.1,3.25-12.65,2.62-2.14-.3-3.36.83-2.83,3a14.83,14.83,0,0,0,3,6.36c2.93,3.13,6,6.17,10.91,6.45,3.83.22,7.55.86,11.44,0a13.52,13.52,0,0,0,9-6.21,10.28,10.28,0,0,0,1-4.54c.3-3.46,2.18-4.74,5.17-3a54.7,54.7,0,0,1,7.66,5.55c3.44,2.92,3.59,6.93,3,11-.42,3.09-2,5.65-3.4,8.42-2.73,5.4-7.22,8.55-12.14,10.93-6.83,3.31-14.09,5.44-21.83,2.39a4.37,4.37,0,0,0-3.86.46c-1.35,1.31-.16,2.93,1,3.9a22.31,22.31,0,0,0,15.1,5.62c3.58,0,7.16-.64,10.1-2.86a34.77,34.77,0,0,0,3.91-4.2c1.08-1.16,2.32-3.33,3.27-3.22a8.21,8.21,0,0,1,5.07,2.81c4.62,5.94,4.57,12.52,1.81,19.28-.65,1.6-.84,3.47-1.78,4.85a92.49,92.49,0,0,1-6.3,7.85,23.8,23.8,0,0,1-3.07,2.67,4.44,4.44,0,0,1-1.47,1c-11.62,3-22.57,1.74-32.61-5.2a68.43,68.43,0,0,1-5.75-4c-2-1.76-3.72-3.9-5.7-5.71-.63-.57-2.06-1.13-2.51-.82a3.31,3.31,0,0,0-1.19,2.64c1,7.94-1,15.39-3.32,22.86a21.83,21.83,0,0,1-6.52,10.63c-6.16,5.31-12,5-18.24.39a11.34,11.34,0,0,1-3-4.18,57.69,57.69,0,0,1-4-9.32,65,65,0,0,1-3-19.8,3.66,3.66,0,0,0-1.28-2.82c-.5-.32-2.09.36-2.7,1-4.17,4.66-9.46,7.82-15,10.33-6.44,2.93-13.22,4.93-20.58,4.56a26.67,26.67,0,0,1-15.09-5.27c-6.47-4.8-7.83-11.82-8.28-19.16a26.45,26.45,0,0,1,.59-7.64c.69-2.9,1.84-5.68,5-7.11,3-1.36,6.25-.65,7.82,2.2a15.13,15.13,0,0,1,1.52,4.24,4,4,0,0,0,3.16,3.43,28.2,28.2,0,0,0,14.8-.35c3.92-1.24,8.31-3,10.4-7.33.33-.67.65-1.72.34-2.21a2.32,2.32,0,0,0-2.11-.63c-4.27,1.38-8.64,1.25-13,1.08a29.83,29.83,0,0,1-13.31-3.49,46.77,46.77,0,0,1-6.25-3.91,17,17,0,0,1-6.09-9.48,31.29,31.29,0,0,1-.29-11c.65-5,3.12-9.1,8.41-10.73a5,5,0,0,0,1-.52c2.71-1.65,3.81-1.19,4.71,2,.65,2.24,1.18,4.53,2,6.71a10.27,10.27,0,0,0,8.56,7.07,25.24,25.24,0,0,0,13.81-1c4-1.54,8-3.32,9.32-8.11.36-1.27,1.41-2.34,1.88-3.59,1-2.58-.22-4.15-2.94-4-5.37.36-9.57-2.24-13.53-5.34a4.09,4.09,0,0,1-1.39-2.49,61.36,61.36,0,0,1-.36-7.9,2.86,2.86,0,0,1,3.22-3c1.43,0,2.86.15,4.29.14a13.27,13.27,0,0,0,12.38-9c1-2.93,2-5.86,2.91-8.8,1.09-3.43-.24-5.33-3.69-5.86-1.1-.17-2.77-1-2.95-1.77a5.9,5.9,0,0,1,1-3.84c2.09-3.53,4.85-6.74,6.5-10.45a125.79,125.79,0,0,0,6.1-17c2-6.93,2.2-14.15,2.2-21.33a5,5,0,0,0-1.57-3.25c-.34-.31-2,.47-2.82,1.07-3.94,2.89-6.08,7-7.32,11.6-1.49,5.61-2.76,11.29-4.62,16.77a51.58,51.58,0,0,1-4.85,9.39,4.21,4.21,0,0,1-2.73,1.71c-2.34.32-3.06,1.67-3.07,3.73,0,3.09,0,6.19-.05,9.29-.07,4.08-2.74,5.68-6.16,3.59s-6.42-4.18-9.59-6.33c-1.45-1-3.77-.66-5.71,1.27-3.92,3.87-7.71,7.86-11.55,11.8A163.58,163.58,0,0,0,311,535c-2.85,4.14-5.5,8.44-8.28,12.63-.58.88-1.56,1.54-1.95,2.46-.48,1.16-1.08,2.74-.65,3.68a4.4,4.4,0,0,0,3.2,1.85c3.36.32,6.83-.17,10.1.44,6.33,1.19,8.42,7.56,4.28,12.5-1.69,2-3.73,3.71-5.51,5.65a29.93,29.93,0,0,0-2.86,3.75c-.53.81-.74,1.83-1.25,2.66-2.55,4-3.34,5.52-8.23,3.25-1.42-.66-3.06-.84-4.52-1.43a2.94,2.94,0,0,1-1.7-1.53c-.14-.49.48-1.4,1-1.84,4.54-3.8,4.63-4.61-.06-8.36a37.14,37.14,0,0,0-6.33-3.69c-1.73-.91-3.58-1.59-5.34-2.42a4.35,4.35,0,0,0-5.35,1c-2.54,2.94-5.16,5.8-7.57,8.83a33.73,33.73,0,0,0-2.45,4.47c-2.23,3.92-2.42,8-1.67,12.4a6.37,6.37,0,0,1-3.39,6.69,16.59,16.59,0,0,0-2.55,1.88c-2.38,2-2.43,4.26-.42,6.68a6.74,6.74,0,0,1,.71,2.53c-.82.11-1.77.54-2.45.28-2.67-1-5.26-2.25-7.87-3.42a2.68,2.68,0,0,1-1.12-.74c-3.28-4.68-6.2-9.5-6.29-15.49-.09-5.62,1.52-8.22,6.82-10.14,3.49-1.26,6.88-2.53,9.8-5a5.19,5.19,0,0,0,1.76-5.26c-.21-1.5-1.45-1.93-2.77-1.48-4.13,1.4-8.4,2.57-12.28,4.5-2.21,1.1-3.76,3.52-5.63,5.34a14.74,14.74,0,0,1-2.94,2.72c-4.68,2.44-5.62,4.07-4.8,9.09.46,2.86-.66,3.56-3.41,2.93-4-.91-5.51-3.3-5.83-7.18-.39-4.81-1.29-9.58-1.81-14.39-.57-5.29,2.18-8.37,7.48-8.44a32,32,0,0,0,11.77-2.63c4-1.6,8.44-2,12.66-3a16.68,16.68,0,0,0,3-1.39,11,11,0,0,0-2.89-1.69c-3.53-.8-7.1-1.41-10.68-2a3.62,3.62,0,0,0-2.39.28c-4.6,3.18-9.45,4.09-14.78,2.08a22.33,22.33,0,0,0-3.12-.56,5.13,5.13,0,0,0-5.17,1.48c-.6.62-1.84,1.32-2.44,1.09s-1.08-1.54-1.2-2.42a7.18,7.18,0,0,1,.25-3.36c2-5.45,4-10.87,9.07-14.47,3.73-2.63,5.49-3,9.46-.82s7.69,4.42,11.71,6.25c1.64.75,3.74.56,5.64.69,3.12.22,6.29.1,9.36.59s6.27,1.67,9.43,2.39c2.88.67,8-1.91,9.87-4.34a24.79,24.79,0,0,1,4.84-4.7,34.68,34.68,0,0,0,7.91-8.86,18.06,18.06,0,0,1,5.55-4.76c1.57-1,2.62-1.81,2.41-3.83a5,5,0,0,1,2.61-5.11c3-1.84,5.87-3.8,8.65-5.9a3.72,3.72,0,0,0,1.41-2.82c-.47-3.14,1.21-5.13,3.08-7.18a64.78,64.78,0,0,0,5.34-6.37,4,4,0,0,0,.32-3.34,3.37,3.37,0,0,0-2.74-1.45c-3.65.21-6.83-1.05-10-2.62-2.13-1.07-2.46-2.67-.66-4.27a50.61,50.61,0,0,1,6.44-5c2.74-1.75,3.84-3.48,1.25-6.33a1.88,1.88,0,0,1,.07-3,58.94,58.94,0,0,1,6.87-5.06c2.17-1.27,3.29-2.71,2.78-5.28-.57-2.88,0-5.12,3.15-6.37,1.84-.73,1.93-2.38.81-4.92s-.85-3.79,1.28-5.44a27.14,27.14,0,0,0,8.69-11.58c3-7.59,5.85-15.3,9.3-22.7,2.89-6.19,6.19-12.32,12.66-15.73,1.24-.66,2.74-.86,4-1.53.72-.39,1.17-1.28,1.74-1.95-.72-.62-1.36-1.54-2.19-1.77a8.89,8.89,0,0,0-3.6-.06c-3.86.56-17.71-14.46-21.41-15.13-3.85-.69-5.07.53-5.6,4.8-.4,3.15-.78,6.31-1.16,9.46-.67,5.66-1.32,11.31-2,17a3.85,3.85,0,0,1-.23,1.08c-1.71,3.73-3,7.79-5.36,11-1.38,1.9-4.4,3-6.87,3.54-2.69.61-4.21,1.29-4.58,4-.44,3.28-7.15,19.92-19,34.71-7.77,9.68-18.94,20.52-27.23,24.8-1.29,1.64-2.45,1.35-3.49-.52-2.88-5.19-4.12-10.88-4.84-16.69-1-8.28-1.9-16.58-2.74-24.88-.22-2.27,0-4.59-.13-6.87s-.82-2.57-2.56-1.32c.64.46-9.8,4.92-23.64,9.56-7.71,2.77-34,9.24-36.64,9.87-2,.47-3.06-.6-3.43-2.47a11.41,11.41,0,0,1-.3-3.28c.66-6.85,2.9-12.06,7.42-22.13,4.35-10.79,7.28-13.25,11.42-21.94,1.9-4,3.63-8.17,7-11.33,1.33-1.26.26-3.21-1.85-3.23a23.23,23.23,0,0,0-5.16.71c-9.93,2.16-17.24,4-30.92,4.76-3.61-.36-13.72,1-21.08-1s-9.49-2.65-9.69-4.24c-.38-3.09,3.7-4.23,8.29-6.71,8-4.34,8.33-5.58,22.22-13a116.6,116.6,0,0,0,17.69-11,28.28,28.28,0,0,0,3-2.12c1.23-1.21.84-2.28-.84-2.64a3.49,3.49,0,0,0-1.94-.08c-6.55,2.71-32.32-4.89-39-5.11-5.23-.17-10.46-1.67-15.61-2.9-4.09-1-7.89-3.23-5.69-6.88,3.07-5.08,10.58-5,18.94-8.15,15.52-4.21,25.31-7,31.6-9.6a3.23,3.23,0,0,0,1.16-.57c.58-.61,8.32-4,5.8-7.16-1.79-.59-8.6-4-10.42-4.5-11.28-4.9-15.24-6.68-27.09-12.37-.32,0-16-4.47-13.85-10,7.37-10.52,16.08-10.37,18.61-11.49,4.16-1.85,18.32-3.76,22.62-5.3,1.48-.53,13.86-3,15.28-3.73,4.74-2.63,2-6.87-1-11.57-.23-.87-3.91-4.28-4.43-4.9-2-2.41-4.4-4.53-6.3-7a22.59,22.59,0,0,1-4.71-10.84c-.4-3.08.65-4.12,3.61-3.63a4.62,4.62,0,0,0,.65.09c5.91.29,34.2,6.37,40.11,6.57,3,.11-10.24-17.24-10.6-19.11a9.15,9.15,0,0,0-.64-1.89c-1.52-3.5-3.18-6.94-4.55-10.49s-2.49-7.08-3.59-10.67c-.76-2.47-1.36-5-1.9-7.51-.17-.78-.19-2.09.24-2.4a3.23,3.23,0,0,1,2.77-.48c6.09,3.11,22.64,11.45,28.7,14.62a37,37,0,0,0,4.3,1.64l.82-.87" style="fill:#b7b49a"/></g></g></svg>