<svg width="28" height="30" viewBox="0 0 28 30" fill="white" xmlns="http://www.w3.org/2000/svg"><path fill-rule="evenodd" clip-rule="evenodd" d="M27.1937 19.6165C27.1937 20.4324 27.0057 21.2044 26.6706 21.8917C26.047 23.2799 24.7159 24.7005 22.1589 25.671C20.5644 26.2762 19.2693 26.8242 18.2206 27.3119C15.02 28.8002 14.1142 29.7264 14 30C13.8858 29.7264 12.98 28.8002 9.77944 27.3119C8.73069 26.8242 7.43556 26.2762 5.84113 25.671C3.28407 24.7005 1.95303 23.2799 1.32936 21.8917C0.99427 21.2044 0.806292 20.4324 0.806292 19.6165C0.806292 19.1999 0.855311 18.7948 0.947906 18.4065C1.60722 16.7596 2.01951 14.412 2.01951 11.8063C2.01951 8.10751 1.18878 4.92866 0 3.53629L3.65735 0H24.3427L28 3.53629C26.8112 4.92866 25.9805 8.10751 25.9805 11.8063C25.9805 14.412 26.3928 16.7596 27.0521 18.4065C27.1447 18.7948 27.1937 19.1999 27.1937 19.6165ZM19.7173 21.2529C17.2376 22.2182 15.385 23.0805 14 23.8391C12.4935 23.0139 10.4337 22.0661 7.61541 20.9964C6.82632 20.6969 6.39972 20.3947 6.1843 20.2029C5.97636 20.0179 5.91099 19.8889 5.89019 19.8426L5.85809 19.7712L5.82376 19.7008C5.819 19.691 5.81543 19.6815 5.81281 19.6718C6.62042 17.3853 7.01951 14.6123 7.01951 11.8063C7.01951 10.6223 6.94866 9.4596 6.81071 8.34636L19.7173 21.2529ZM10.5354 5L21.2487 15.7133C21.0696 14.4502 20.9805 13.1319 20.9805 11.8063C20.9805 9.60276 21.2259 7.47304 21.6925 5.59848C21.7415 5.40178 21.7944 5.20196 21.8515 5H10.5354Z" fill="white"></path></svg>