<svg id="Layer_1" data-name="Layer 1" xmlns="http://www.w3.org/2000/svg" xmlns:xlink="http://www.w3.org/1999/xlink" viewBox="0 0 1024 1024"><defs><clipPath id="clip-path"><rect width="1024" height="1024" style="fill:none"/></clipPath></defs><title>new</title><g style="clip-path:url(#clip-path)"><polygon points="511.78 45.45 622.96 387.42 981.01 386.37 695 598.26 801.79 938 511.78 730.04 221.76 938 329.54 600.02 42.54 386.37 399.82 385.66 511.78 45.45" style="fill:#ce202b"/><path d="M209.57,954.77l112.34-352.3L22.9,379.89l372.2-.74L511.81,24.47,627.69,380.88l373.17-1.09-298.24,221,111.25,354L511.78,738.06ZM511.78,722,789.7,921.31,687.39,595.79,961.17,393l-342.95,1L511.74,66.44,404.55,392.18l-342.38.68,275,204.71L234,921.23Z" style="fill:#d98b27"/><g style="clip-path:url(#clip-path)"><path d="M529.48,374.11c76.46,6.05,121.87,150.24,63.5,217.35,12.41,15.27,29.07,26.3,44,39.08a51.16,51.16,0,0,1-14.65,22c-21.85-13.15-38.26-31.74-58.61-46.4-41.83,7.47-93.12,4.22-109.9-26.86-7.8,3.59-3,19.81-7.33,26.86-38.9.28-31.6,59.43-75.71,46.4-2.18-42.07,46.65-33.12,48.85-70.82,34.32-24.09,61.27,9.46,112.34,2.44-1.95-11.36-17.8-17.64-31.75-29.31-9.43-7.88-24.75-29.07-31.75-29.3-11.5-.36-18.17,19.86-29.3,26.87-5.6-6.59-31.36-17.73-31.75-26.87-.21-5,60.59-64.84,68.38-68.38,19.54-8.88,37.36-5.08,44,9.77-6.75,16-23,22.59-31.76,36.63,24.28,21.32,49.62,41.58,73.28,63.5,57.36-48.43,20.46-167.35-31.76-192.93" style="fill:#d98b27;fill-rule:evenodd"/><path d="M204.73,961.43l114.15-358L15.11,377.32l378.11-.76L511.83,16.14,629.57,378.29l379.17-1.11L705.64,601.72l113,359.6L511.78,741.25Zm307-242.61L784.9,914.68,684.36,594.8,953.29,395.57l-336.94,1L511.72,74.77l-105.3,320L70,395.43,340.2,596.59l-101.4,318Z" style="fill:#d98b27"/><path d="M195.35,974.33,313,605.33,0,372.33l389.59-.78L511.86,0,633.21,373.26,1024,372.12,711.5,603.63,828,974.16,511.78,747.42ZM30.21,382.3,324.75,601.56l-110.64,347L511.78,735.08l297.6,213.4L699.78,599.82,993.47,382.24l-367.54,1.07L511.8,32.28,396.86,381.57Zm764,545.22L511.78,725,229.42,927.47l104.91-329-279.47-208,347.93-.7,109-331.12L620,391.52l348.57-1L690.22,596.71ZM511.78,712.65,775.61,901.84,678.5,592.9,938,400.63l-325.33.95-101-310.67L410.06,399.77l-325,.65,261,194.28-97.88,307Z" style="fill:#d98b27"/></g></g></svg>