<svg id="Layer_1" data-name="Layer 1" xmlns="http://www.w3.org/2000/svg" xmlns:xlink="http://www.w3.org/1999/xlink" viewBox="0 0 800 800"><defs><clipPath id="clip-path"><rect x="-112" y="-112" width="1024" height="1024" style="fill:none"/></clipPath></defs><title>new</title><g style="clip-path:url(#clip-path)"><g style="clip-path:url(#clip-path)"><path d="M170.46,715.07c-.13-4.61,1.86-8.74,3.18-13,16.2-51.58,33.1-102.93,50.16-154.22,10.51-31.6,20.56-63.35,31-95,1.51-4.59.72-7-3.27-10.18C211.87,411,170.19,382,128.87,352.52q-33.41-23.83-66.38-48.25c-10.35-7.62-20.38-15.7-30.51-23.63a30.24,30.24,0,0,1-3.29-3.56c2.23-1.18,4.21-.64,6.08-.64q135.24-.06,270.48.08c4.8,0,6.86-1.52,8.32-6C326.09,232,339,193.68,351.47,155.18c12.17-37.63,24-75.39,35.89-113.09C391,30.53,394.57,19,398.49,6.34c3.91,5.65,5.05,11.28,6.87,16.48,10.05,28.74,20.16,57.46,29.53,86.43,16.86,52.09,33.25,104.35,49.76,156.56,3.33,10.55,3.17,10.6,14.13,10.6h274c-4,5.35-9.19,8.23-13.71,11.67-45.94,35-92.92,68.57-139.94,102.07-24.17,17.22-47.75,35.25-71.72,52.75-2.54,1.85-2.91,3.26-2,6.15,8.59,28.26,17.41,56.43,26.76,84.45Q590.75,589.3,609,645.24c7.1,21.77,13.84,43.66,20.72,65.51.36,1.14,1.32,2.23.3,3.91-4.22-1.29-7.58-4.23-11-6.72q-64-46-127.82-92.34c-28.78-20.91-57.41-42-86.07-63.1-3-2.23-5.36-2.9-9-.24-41.52,30.44-83.35,60.47-124.82,91q-48.82,35.93-98.34,70.88a10.94,10.94,0,0,1-2.45,1Z" style="fill:#c1bea7"/><path d="M581.1,749c-10.44,7.51-21.58,12.73-32.81,17.73-26.81,12-55.23,18.22-84.08,22.41A299.56,299.56,0,0,1,421,792.73c-6.42,0-12.84,1-19.26.92-43.34-.81-86.21-5.34-127.73-18.5-17.24-5.46-34-12.27-49.58-21.75-4.83-2.94-5.09-3.63-.6-7,10.28-7.73,20.71-15.26,31.06-22.89,4.75-3.49,9.51-7,14.18-10.57,2.66-2,5.15-2.53,8.4-1,19.25,9,39.79,13.56,60.6,17.25a360,360,0,0,0,75.79,5.22,370,370,0,0,0,52.57-5.71c19.58-3.51,38.67-8.7,56.78-17.07,3.19-1.47,5.41-.2,7.9,1.41,13.54,8.72,25.78,19.25,39,28.34,3.51,2.41,7,4.88,10.92,7.65" style="fill:#c1bea7"/><path d="M4.38,400.11a449.51,449.51,0,0,1,4.22-60c.67-4.68,1.68-4.52,5-2.36,12.76,8.28,25.08,17.18,37.15,26.42.14.11.24.29.4.36,11.92,5,13.22,14.46,12.85,26.11-1,31.74,3.27,63,11.09,93.8,10.36,40.76,28.71,77.72,53.4,111.64,4.1,5.63,8.23,11.25,12.52,16.73,1.68,2.15,1.58,4.18.82,6.53q-6.41,19.6-12.68,39.26c-1.51,4.76-2.91,9.58-4.08,14.44-1,4.3-2.73,4.68-6,1.92A215.91,215.91,0,0,1,83.25,636.6,407.44,407.44,0,0,1,24.53,523.05,388.9,388.9,0,0,1,9.62,460.64a451.06,451.06,0,0,1-5.24-60.53" style="fill:#c1bea7"/><path d="M463.08,8.6c14.4,2.62,27.31,5.37,40.05,8.9,20.54,5.69,40.77,12.26,60.32,20.79A362.13,362.13,0,0,1,642.7,85.23c13,10.19,25.51,20.84,36.91,32.74,23.74,24.77,44.51,51.79,61.4,81.72,3.35,5.92,6.69,11.85,10,17.81.56,1,1.75,2.28.69,3.37a3.78,3.78,0,0,1-3,.45c-11.16-2.63-22,1.11-32.91,1.88a133.87,133.87,0,0,1-21.47.12c-9.81-.87-14.13-9.15-19.23-15.85-7.91-10.37-15-21.35-22.83-31.8-8-10.69-17.95-19.59-27.71-28.53-13.31-12.2-28-22.75-43.31-32.38C554.89,98.23,526.51,86.46,497,77.18c-4.78-1.51-9.57-3-14.39-4.32-1.5-.41-2.39-.79-2.92-2.51-5.81-19-11.78-37.87-17.63-56.82-.64-2.09-2.15-5,1-4.93" style="fill:#c1bea7"/><path d="M81.14,221.47c-9.52,0-19-.08-28.55,0-3.39.05-4.13-.84-2.55-4a404.06,404.06,0,0,1,43.35-68.33A349,349,0,0,1,123.54,115a371.81,371.81,0,0,1,78.59-59.3c34-19.09,70.24-32.12,107.82-41.81,6.56-1.69,13.27-2.76,19.9-4.18,6.14-1.32,8.45,1.1,7.36,7.48-1.55,9-4.62,17.57-7.72,26.1s-6.66,17-8.09,26.09c-.55,3.5-3.24,3.63-5.45,4.19a342.68,342.68,0,0,0-47.32,15.74c-26,10.74-49.85,25-72.19,42A301.2,301.2,0,0,0,163,160.68,412,412,0,0,0,116.76,217c-2.28,3.36-4.6,4.74-8.69,4.59-9-.33-17.95-.1-26.93-.1" style="fill:#c1bea7"/><path d="M794.31,379.6a224.68,224.68,0,0,1,1.29,23.76c-.92,51.44-10.3,101.13-30.08,148.77a379.7,379.7,0,0,1-45.82,80.55c-11.55,15.6-25.26,29.29-39.18,42.76-2,1.9-3.79,2.63-4.5-.85-3.68-18.15-11.88-34.87-16.64-52.68-1-3.63-.43-6.21,1.81-9.36,16.31-22.93,31.84-46.36,43.8-72a327.51,327.51,0,0,0,27.09-88.39c3.43-21.81,5.2-43.73,4-65.72-.5-9,3.32-14.49,9.48-19.52,13.17-10.77,27.84-19.45,41.48-29.55,1.86-1.37,2.71-1.35,3.44,1.42,2,7.67,2.1,15.57,2.76,23.34.48,5.67,2.12,11.3,1.11,17.43" style="fill:#c1bea7"/><path d="M170.47,715.07l-.26.46.25-.46Z" style="fill:#c1bea7"/></g></g></svg>